PathFileType	4	(X/Y/Z)	./resultDataOpenSim/trcMotMarkerGrf/sub06/qtm-15-05.trc
DataRate	CameraRate	NumFrames	NumMarkers	Units	OrigDataRate	OrigDataStartFrame	OrigNumFrames
250.000000	250.000000	8	24	m	250.000000	193	513
Frame#	Time	L.Toe.Tip			R.Toe.Tip			L.Ankle.Lat			R.Ankle.Lat			L.Ankle.Med			R.Ankle.Med			L.Heel			R.Heel			L.Knee.Lat			R.Knee.Lat			L.Knee.Med			R.Knee.Med			L.Thigh.Upper			R.Thigh.Upper			L.ASIS			R.ASIS			V.Sacral			L.Acromium			R.Acromium			C7			L.Elbow			R.Elbow			L.Wrist.Lat			R.Wrist.Lat
		X1	Y1	Z1	X2	Y2	Z2	X3	Y3	Z3	X4	Y4	Z4	X5	Y5	Z5	X6	Y6	Z6	X7	Y7	Z7	X8	Y8	Z8	X9	Y9	Z9	X10	Y10	Z10	X11	Y11	Z11	X12	Y12	Z12	X13	Y13	Z13	X14	Y14	Z14	X15	Y15	Z15	X16	Y16	Z16	X17	Y17	Z17	X18	Y18	Z18	X19	Y19	Z19	X20	Y20	Z20	X21	Y21	Z21	X22	Y22	Z22	X23	Y23	Z23	X24	Y24	Z24

193	0.768	0.14590748	-0.064417715	-0.027973968	-0.59615155	0.070199181	0.077093551	0.029172706	-0.030066296	-0.080313907	-0.58878889	0.21078013	0.095575996	0.0047815153	-0.020433793	0.0025191836	-0.53824139	0.18718998	0.023429698	-0.051895927	-0.061006543	-0.059430405	-0.5952812	0.25062772	0.025032031	0.044164035	0.3441983	-0.081740822	-0.23305434	0.338196	0.18050674	-0.015778855	0.34075177	0.027728208	-0.21584069	0.30913813	0.050508618	-0.049700728	0.71625075	-0.16693638	-0.17485808	0.69615819	0.15836015	-0.0051518746	0.75908096	-0.093728747	-0.071355245	0.75743861	0.1397362	-0.21430724	0.83121743	-0.026066483	-0.11188657	1.2257409	-0.20165183	-0.1505928	1.2302094	0.15292779	-0.21068316	1.2572858	-0.035822392	-0.23000889	0.94330489	-0.24041779	-0.1421099	0.9187555	0.265426	-0.18904487	0.71277938	-0.31092325	0.099679404	0.85391767	0.22121927
194	0.772	0.14605306	-0.064460648	-0.027994365	-0.58272559	0.074338423	0.078757643	0.029523181	-0.029532629	-0.080256999	-0.57462561	0.21498043	0.09563077	0.0057414547	-0.019154664	0.0023017991	-0.52471532	0.19068857	0.023457927	-0.051693267	-0.060717754	-0.059233101	-0.581132	0.25423059	0.025134538	0.053295943	0.34643972	-0.080621417	-0.21899127	0.33586089	0.18196493	-0.0095659489	0.34421608	0.027972084	-0.20073907	0.30712401	0.051905438	-0.046543075	0.71782237	-0.16841079	-0.16589729	0.69350538	0.15927262	0.00014833021	0.75755099	-0.093940658	-0.064345766	0.7549973	0.13926961	-0.20839272	0.83105306	-0.025449078	-0.10193666	1.2234561	-0.20278114	-0.14450308	1.2286622	0.15322237	-0.20144242	1.2570401	-0.037508889	-0.22019809	0.94075491	-0.24198033	-0.13701839	0.91613019	0.26504347	-0.17962452	0.71014451	-0.31164376	0.1046061	0.85027968	0.22225737
195	0.776	0.14639168	-0.064556432	-0.028146072	-0.56857872	0.078142258	0.080330035	0.030034949	-0.029503089	-0.080364692	-0.55979882	0.21889354	0.09583904	0.007016006	-0.018496615	0.0021785485	-0.51064599	0.19407375	0.023550971	-0.051450043	-0.060429133	-0.058991466	-0.56654802	0.25784825	0.025450666	0.061976716	0.34811656	-0.08003477	-0.20438546	0.33379582	0.18338962	-0.0023904221	0.34666756	0.027881417	-0.18552491	0.30609535	0.053144164	-0.04354949	0.71867288	-0.169519	-0.15728133	0.6910396	0.1602258	0.0057862164	0.75642895	-0.094881903	-0.056865988	0.75204771	0.13842871	-0.2027752	0.83088315	-0.024408786	-0.092130343	1.2214135	-0.20395357	-0.13823359	1.2273589	0.15380726	-0.19190954	1.257188	-0.038807916	-0.21025591	0.93825097	-0.24347338	-0.13186015	0.91349792	0.26443808	-0.17000966	0.70755338	-0.31225734	0.10941185	0.84655627	0.22340982
196	0.78	0.14676009	-0.064673864	-0.02842511	-0.55382668	0.081557713	0.081811936	0.030656147	-0.029871824	-0.08057166	-0.54432108	0.22251038	0.096262066	0.0084859421	-0.01824012	0.0020294594	-0.49606542	0.19725948	0.02357202	-0.051278709	-0.06020561	-0.058749338	-0.55165715	0.26133865	0.025873198	0.069866345	0.34908654	-0.079928116	-0.18930807	0.33194699	0.18484594	0.0058173708	0.34806767	0.027648131	-0.17035079	0.30592677	0.054206901	-0.040442699	0.7186098	-0.17013365	-0.14924102	0.68884796	0.16108595	0.011858822	0.75555365	-0.096633325	-0.048855646	0.74871492	0.13709924	-0.19731748	0.83057796	-0.023037248	-0.082495091	1.2196815	-0.20508294	-0.13151189	1.2262443	0.15469431	-0.18226209	1.2576817	-0.039667873	-0.200148	0.93585734	-0.24486587	-0.12656741	0.91092045	0.26360963	-0.16015629	0.70508204	-0.31274191	0.11406029	0.84275863	0.22467138
197	0.784	0.14703478	-0.064770524	-0.028771135	-0.53851405	0.084617603	0.083180108	0.031262654	-0.030442873	-0.080883575	-0.52822388	0.22588011	0.096908352	0.0098294048	-0.018101804	0.0017272866	-0.48101548	0.20021845	0.023451683	-0.051221219	-0.060064366	-0.058667194	-0.53661992	0.26460397	0.026330976	0.076807484	0.34935187	-0.080229549	-0.1738843	0.33032019	0.18633588	0.014822036	0.34852702	0.027454548	-0.15541006	0.30643621	0.055154344	-0.037097303	0.71776035	-0.17028419	-0.14197596	0.68702128	0.16174063	0.018127999	0.75476383	-0.098694182	-0.040375864	0.74538144	0.13522643	-0.19161161	0.82996088	-0.021546111	-0.073064035	1.2183233	-0.20606349	-0.12418454	1.2253175	0.15579396	-0.17264771	1.2584593	-0.040150783	-0.18981427	0.93365516	-0.24618297	-0.12112988	0.90847335	0.26257794	-0.14999493	0.70282845	-0.31308185	0.11850941	0.83890402	0.22601942
198	0.788	0.14717153	-0.06483815	-0.029129913	-0.52264005	0.087409676	0.084412825	0.031701326	-0.031016057	-0.081356415	-0.51173157	0.22899863	0.097670664	0.010707442	-0.017931921	0.0012496622	-0.46559556	0.20298749	0.023296462	-0.051237836	-0.059982161	-0.058877104	-0.52155621	0.26760428	0.026807818	0.082851761	0.3490908	-0.080840261	-0.15822606	0.32896143	0.18781132	0.024281238	0.34826988	0.027396656	-0.14085636	0.3074017	0.056137228	-0.033432204	0.71644042	-0.17015607	-0.13548076	0.68565954	0.1621719	0.024251849	0.75398823	-0.10059187	-0.031766511	0.74252853	0.13295669	-0.18557511	0.82900533	-0.020057297	-0.063865867	1.2173813	-0.20677486	-0.11623386	1.2246419	0.15690767	-0.16317806	1.2594309	-0.040358588	-0.17924972	0.9317587	-0.24737844	-0.11563438	0.90626401	0.26137097	-0.1394496	0.70090977	-0.31326223	0.12271844	0.83501543	0.2274156
199	0.792	0.14716747	-0.064888401	-0.029472987	-0.50619677	0.090026413	0.085508077	0.031894244	-0.031469398	-0.08199986	-0.49516311	0.23181557	0.098404685	0.011046121	-0.0177306	0.00068824263	-0.44992937	0.20563702	0.023297502	-0.051280588	-0.059930095	-0.059326684	-0.50648758	0.27034657	0.027331844	0.088151488	0.34852243	-0.081650896	-0.14240095	0.32792673	0.18921025	0.033883648	0.34750472	0.027420677	-0.12663783	0.30857618	0.057287394	-0.029367666	0.71501274	-0.170011	-0.12932796	0.68486535	0.16253515	0.030103962	0.75326459	-0.10223379	-0.023655426	0.74047547	0.13069862	-0.17962568	0.82792658	-0.018583484	-0.054894068	1.2168613	-0.20712257	-0.10773246	1.2242966	0.15781732	-0.15389595	1.2604731	-0.040341897	-0.16849848	0.93028641	-0.24834421	-0.11021067	0.90442211	0.26001042	-0.12845703	0.69944136	-0.3132658	0.12665876	0.8311158	0.22882376
200	0.796	0.14706736	-0.064933104	-0.029760105	-0.48918079	0.092514725	0.086477859	0.031899134	-0.031785555	-0.08272067	-0.47864627	0.23433576	0.099073431	0.011056556	-0.017547377	0.00015840362	-0.43406409	0.20822009	0.023532049	-0.051325542	-0.059884292	-0.059823467	-0.49133457	0.27287004	0.027958252	0.092835506	0.34775549	-0.08257547	-0.12644493	0.32725729	0.19048725	0.04326112	0.34633899	0.027348698	-0.11243132	0.30973985	0.058590603	-0.024871267	0.71377842	-0.17005235	-0.12276817	0.68470874	0.16308205	0.035780821	0.75268578	-0.1037583	-0.016652094	0.73927133	0.12895105	-0.17414393	0.82702453	-0.017354387	-0.046075015	1.2167298	-0.20708188	-0.09880514	1.2243082	0.15839508	-0.14478197	1.2614797	-0.040101436	-0.15761267	0.92931224	-0.2489975	-0.10496559	0.90307179	0.25851989	-0.11697655	0.69849839	-0.31308175	0.13032648	0.8272226	0.23022236
